<?xml version="1.0" encoding="UTF-8" standalone="no"?>
<svg width="186px" height="188px" viewBox="0 0 186 188" version="1.1" xmlns="http://www.w3.org/2000/svg" xmlns:xlink="http://www.w3.org/1999/xlink" xmlns:sketch="http://www.bohemiancoding.com/sketch/ns">
    <!-- Generator: Sketch 3.3.2 (12043) - http://www.bohemiancoding.com/sketch -->
    <title>Slice 1</title>
    <desc>Created with Sketch.</desc>
    <defs></defs>
    <g id="Page-1" stroke="none" stroke-width="1" fill="none" fill-rule="evenodd" sketch:type="MSPage">
        <g id="logos" sketch:type="MSLayerGroup">
            <g id="logo-light" transform="translate(1.000000, 127.000000)">
                <g id="Page-1">
                    <g id="logo-light">
                        <g id="Page-1">
                            <g id="logo-light">
                                <g id="Page-1">
                                    <g id="logo-light" sketch:type="MSShapeGroup">
                                        <g id="Group">
                                            <g id="Shape">
                                                <path d="M8.16104746,60.8179104 L14.9669394,60.8179104 C16.593126,60.8179104 18.5806874,59.6646766 19.4238953,58.2686567 L25.1757774,48.6482587 C25.8684124,47.2218905 25.8382979,45.1885572 25.0553191,43.8835821 L21.6523732,38.238806 L8.16104746,60.8179104 L8.16104746,60.8179104 Z" fill="#F6C25B"></path>
                                                <path d="M15.4788871,33.0189055 L0.331260229,58.5721393 C-0.24091653,59.8164179 0.361374795,60.8482587 1.86710311,60.8482587 L8.16104746,60.8482587 L21.6523732,38.2691542 L15.4788871,27.9810945 C16.3220949,29.3164179 16.3220949,31.6228856 15.4788871,33.0189055" fill="#0A985C"></path>
                                                <path d="M1.83698854,0.121393035 C0.210801964,0.121393035 -0.421603928,1.27462687 0.421603928,2.67064677 L25.0553191,43.8835821 C25.8382979,45.1885572 25.8382979,47.2522388 25.1757774,48.6482587 L31.1685761,38.6029851 L8.19116203,0.121393035 L1.83698854,0.121393035 L1.83698854,0.121393035 Z" fill="#5586C5"></path>
                                                <path d="M8.16104746,0.121393035 L31.1384615,38.6029851 L34.4811784,33.0189055 C35.3243863,31.6228856 35.3243863,29.3467662 34.4811784,27.9507463 L19.4238953,2.67064677 C18.5806874,1.27462687 16.593126,0.121393035 14.9669394,0.121393035 L8.16104746,0.121393035 L8.16104746,0.121393035 Z" fill="#D9423E"></path>
                                            </g>
                                            <g id="Shape" transform="translate(47.882160, 10.318408)" fill="#E6E6E5">
                                                <g id="Group" transform="translate(2.108020, 23.671642)">
                                                    <path d="M9.72700491,14.6278607 L0.0903436989,14.6278607 L0.0903436989,12.8676617 L3.76432079,9.13482587 C4.84844517,8.0119403 5.57119476,7.22288557 5.93256956,6.76766169 C6.29394435,6.31243781 6.53486088,5.85721393 6.71554828,5.46268657 C6.86612111,5.03781095 6.95646481,4.61293532 6.95646481,4.12736318 C6.95646481,3.49004975 6.77577741,2.97412935 6.38428805,2.60995025 C5.99279869,2.24577114 5.4507365,2.06368159 4.78821604,2.06368159 C4.24615385,2.06368159 3.70409165,2.15472637 3.19214403,2.36716418 C2.6801964,2.57960199 2.10801964,2.94378109 1.41538462,3.45970149 L0.180687398,1.94228856 C0.963666121,1.27462687 1.74664484,0.789054726 2.499509,0.515920398 C3.25237316,0.24278607 4.03535188,0.0910447761 4.87855974,0.0910447761 C6.20360065,0.0910447761 7.25761047,0.424875622 8.07070376,1.12288557 C8.88379705,1.82089552 9.27528642,2.76169154 9.27528642,3.94527363 C9.27528642,4.58258706 9.15482815,5.2199005 8.94402619,5.79651741 C8.70310966,6.37313433 8.37184943,6.9800995 7.89001637,7.58706468 C7.40818331,8.19402985 6.62520458,9.04378109 5.51096563,10.1059701 L3.04157119,12.5338308 L3.04157119,12.6248756 L9.78723404,12.6248756 L9.72700491,14.6278607 L9.72700491,14.6278607 Z" id="Shape"></path>
                                                    <path d="M21.110311,7.43532338 C21.110311,9.9238806 20.7188216,11.7751244 19.9057283,12.9890547 C19.092635,14.2029851 17.8880524,14.8099502 16.2618658,14.8099502 C14.6657938,14.8099502 13.4913257,14.1726368 12.6481178,12.9283582 C11.8350245,11.6840796 11.4134206,9.83283582 11.4134206,7.43532338 C11.4134206,4.91641791 11.80491,3.03482587 12.6180033,1.85124378 C13.400982,0.637313433 14.6356792,0.0606965174 16.2618658,0.0606965174 C17.8579378,0.0606965174 19.0625205,0.69800995 19.8756137,1.94228856 C20.688707,3.18656716 21.110311,5.00746269 21.110311,7.43532338 L21.110311,7.43532338 L21.110311,7.43532338 Z M13.7623568,7.43532338 C13.7623568,9.37761194 13.9731588,10.7736318 14.3646481,11.6233831 C14.7561375,12.4731343 15.3885434,12.8676617 16.2919804,12.8676617 C17.1653028,12.8676617 17.7977087,12.4427861 18.2193126,11.5930348 C18.610802,10.7432836 18.8216039,9.34726368 18.8216039,7.43532338 C18.8216039,5.52338308 18.610802,4.12736318 18.2193126,3.24726368 C17.8278232,2.39751244 17.1653028,1.94228856 16.2919804,1.94228856 C15.4186579,1.94228856 14.786252,2.36716418 14.3646481,3.21691542 C13.9430442,4.09701493 13.7623568,5.49303483 13.7623568,7.43532338 L13.7623568,7.43532338 L13.7623568,7.43532338 Z" id="Shape"></path>
                                                    <path d="M29.5423895,14.6278607 L27.2536825,14.6278607 L27.2536825,5.37164179 C27.2536825,4.27910448 27.2837971,3.39900498 27.3440262,2.73134328 C27.1934534,2.88308458 27.012766,3.06517413 26.801964,3.24726368 C26.591162,3.42935323 25.8684124,4.03631841 24.6036007,5.03781095 L23.4592471,3.58109453 L27.6451718,0.273134328 L29.5423895,0.273134328 L29.5423895,14.6278607 L29.5423895,14.6278607 Z" id="Shape"></path>
                                                    <path d="M39.0585925,5.64477612 C40.5040917,5.64477612 41.6183306,6.03930348 42.4615385,6.79800995 C43.3047463,7.55671642 43.7263502,8.61890547 43.7263502,9.9238806 C43.7263502,11.4412935 43.2445172,12.6552239 42.3109656,13.5049751 C41.3472995,14.3547264 40.0222586,14.8099502 38.2454992,14.8099502 C36.6494272,14.8099502 35.41473,14.5368159 34.4811784,14.0208955 L34.4811784,11.9268657 C34.993126,12.2303483 35.6255319,12.4731343 36.2880524,12.6248756 C36.9806874,12.7766169 37.6130933,12.8676617 38.18527,12.8676617 C39.2091653,12.8676617 39.992144,12.6248756 40.5342062,12.1696517 C41.0762684,11.7144279 41.3472995,11.0164179 41.3472995,10.1363184 C41.3472995,8.43681592 40.2631751,7.55671642 38.0949264,7.55671642 C37.7937807,7.55671642 37.4022913,7.58706468 36.9806874,7.64776119 C36.5289689,7.70845771 36.1374795,7.76915423 35.8062193,7.860199 L34.7823241,7.25323383 L35.3243863,0.24278607 L42.7325696,0.24278607 L42.7325696,2.30646766 L37.3420622,2.30646766 L37.010802,5.85721393 C37.2517185,5.82686567 37.5227496,5.76616915 37.8540098,5.70547264 C38.18527,5.67512438 38.5767594,5.64477612 39.0585925,5.64477612 L39.0585925,5.64477612 L39.0585925,5.64477612 Z" id="Shape"></path>
                                                </g>
                                                <g id="Group" transform="translate(54.206219, 0.000000)">
                                                    <path d="M13.6720131,8.0119403 C13.6720131,10.7129353 12.9492635,12.8069652 11.4736498,14.2636816 C9.99803601,15.720398 7.9502455,16.4487562 5.2700491,16.4487562 L0.0903436989,16.4487562 L0.0903436989,0.24278607 L5.6314239,0.24278607 C8.19116203,0.24278607 10.1787234,0.910447761 11.5639935,2.24577114 C12.9793781,3.58109453 13.6720131,5.52338308 13.6720131,8.0119403 L13.6720131,8.0119403 L13.6720131,8.0119403 Z M9.18494272,8.19402985 C9.18494272,6.70696517 8.88379705,5.61442786 8.31162029,4.88606965 C7.73944354,4.15771144 6.86612111,3.8238806 5.66153846,3.8238806 L4.39672668,3.8238806 L4.39672668,12.89801 L5.3603928,12.89801 C6.68543372,12.89801 7.64909984,12.5034826 8.25139116,11.7447761 C8.88379705,10.9557214 9.18494272,9.7721393 9.18494272,8.19402985 L9.18494272,8.19402985 L9.18494272,8.19402985 Z" id="Shape"></path>
                                                    <path d="M20.9296236,16.6915423 C18.8517185,16.6915423 17.2556465,16.1452736 16.111293,15.0223881 C14.9669394,13.8995025 14.3947627,12.321393 14.3947627,10.2577114 C14.3947627,8.13333333 14.9368249,6.49452736 15.9908347,5.37164179 C17.0448445,4.24875622 18.5505728,3.6721393 20.5080196,3.6721393 C22.3751227,3.6721393 23.8206219,4.15771144 24.8445172,5.15920398 C25.8684124,6.16069652 26.3803601,7.55671642 26.3803601,9.43830846 L26.3803601,11.380597 L18.7312602,11.380597 C18.7613748,12.078607 19.0022913,12.6248756 19.4841244,13.019403 C19.9659574,13.4139303 20.5983633,13.6263682 21.4415712,13.6263682 C22.1944354,13.6263682 22.8870704,13.5656716 23.5194763,13.4139303 C24.1518822,13.2621891 24.8445172,13.019403 25.5672668,12.6855721 L25.5672668,15.8114428 C24.9047463,16.1756219 24.2121113,16.3880597 23.4893617,16.539801 C22.7666121,16.6308458 21.9234043,16.6915423 20.9296236,16.6915423 L20.9296236,16.6915423 L20.9296236,16.6915423 Z M20.688707,6.64626866 C20.1767594,6.64626866 19.7551555,6.79800995 19.4238953,7.1318408 C19.092635,7.46567164 18.8818331,7.95124378 18.8216039,8.64925373 L22.495581,8.64925373 C22.4654664,8.04228856 22.3148936,7.55671642 21.9836334,7.19253731 C21.6523732,6.82835821 21.2307692,6.64626866 20.688707,6.64626866 L20.688707,6.64626866 L20.688707,6.64626866 Z" id="Shape"></path>
                                                    <path d="M30.686743,16.4791045 L25.9587561,3.91492537 L30.4157119,3.91492537 L32.5237316,11.3502488 C32.5237316,11.380597 32.5538462,11.4412935 32.5839607,11.5323383 C32.6140753,11.6233831 32.6140753,11.7144279 32.6441899,11.8358209 C32.6743044,11.9572139 32.6743044,12.078607 32.704419,12.2303483 C32.7345336,12.3820896 32.7345336,12.5034826 32.7345336,12.6248756 L32.7947627,12.6248756 C32.7947627,12.2303483 32.8549918,11.8358209 33.0055646,11.380597 L35.203928,3.91492537 L39.6608838,3.91492537 L34.9328969,16.4791045 L30.686743,16.4791045 L30.686743,16.4791045 Z" id="Shape"></path>
                                                    <path d="M44.2684124,16.4791045 L40.0222586,16.4791045 L40.0222586,0.273134328 L49.4782324,0.273134328 L49.4782324,3.79353234 L44.2684124,3.79353234 L44.2684124,6.88905473 L49.0566285,6.88905473 L49.0566285,10.4094527 L44.2684124,10.4094527 L44.2684124,16.4791045 L44.2684124,16.4791045 Z" id="Shape"></path>
                                                    <path d="M56.4648118,16.6915423 C54.4170213,16.6915423 52.8209493,16.1452736 51.6464812,15.0223881 C50.5021277,13.8995025 49.9299509,12.321393 49.9299509,10.2577114 C49.9299509,8.13333333 50.4720131,6.49452736 51.5260229,5.37164179 C52.5800327,4.24875622 54.085761,3.6721393 56.0432079,3.6721393 C57.910311,3.6721393 59.3558101,4.15771144 60.3797054,5.15920398 C61.4036007,6.16069652 61.9155483,7.55671642 61.9155483,9.43830846 L61.9155483,11.380597 L54.2664484,11.380597 C54.296563,12.078607 54.5374795,12.6248756 55.0193126,13.019403 C55.5011457,13.4139303 56.1335516,13.6263682 56.9767594,13.6263682 C57.7296236,13.6263682 58.4222586,13.5656716 59.0546645,13.4139303 C59.6870704,13.2621891 60.3495908,13.019403 61.102455,12.6855721 L61.102455,15.8114428 C60.4399345,16.1756219 59.7472995,16.3880597 59.0245499,16.539801 C58.3018003,16.6308458 57.4585925,16.6915423 56.4648118,16.6915423 L56.4648118,16.6915423 L56.4648118,16.6915423 Z M56.2238953,6.64626866 C55.7119476,6.64626866 55.2903437,6.79800995 54.9590835,7.1318408 C54.6278232,7.46567164 54.4170213,7.95124378 54.3567921,8.64925373 L58.0307692,8.64925373 C58.0006547,8.04228856 57.8500818,7.55671642 57.5188216,7.19253731 C57.1875614,6.82835821 56.7659574,6.64626866 56.2238953,6.64626866 L56.2238953,6.64626866 L56.2238953,6.64626866 Z" id="Shape"></path>
                                                    <path d="M72.5459902,12.6248756 C72.5459902,13.960199 72.0942717,14.9920398 71.1908347,15.6900498 C70.2873977,16.3880597 68.9924714,16.7218905 67.3060556,16.7218905 C66.4026187,16.7218905 65.5895254,16.661194 64.9270049,16.5701493 C64.2343699,16.4791045 63.5718494,16.2970149 62.8490998,16.0238806 L62.8490998,12.5641791 C63.5116203,12.8676617 64.2343699,13.1104478 65.0173486,13.2925373 C65.8003273,13.4746269 66.5230769,13.5656716 67.1253682,13.5656716 C68.0589198,13.5656716 68.5106383,13.3532338 68.5106383,12.9283582 C68.5106383,12.7159204 68.39018,12.5034826 68.1191489,12.321393 C67.8481178,12.1393035 67.0952537,11.8054726 65.8605565,11.3199005 C64.7162029,10.8343284 63.9332242,10.318408 63.4815057,9.71144279 C63.0297872,9.10447761 62.7888707,8.34577114 62.7888707,7.43532338 C62.7888707,6.28208955 63.2405892,5.37164179 64.1139116,4.7039801 C64.987234,4.03631841 66.2520458,3.73283582 67.8782324,3.73283582 C68.6913257,3.73283582 69.4743044,3.8238806 70.1669394,4.00597015 C70.889689,4.1880597 71.6124386,4.46119403 72.3954173,4.79502488 L71.2510638,7.58706468 C70.6788871,7.34427861 70.0765957,7.10149254 69.4441899,6.91940299 C68.811784,6.73731343 68.2998363,6.64626866 67.908347,6.64626866 C67.2157119,6.64626866 66.8543372,6.82835821 66.8543372,7.16218905 C66.8543372,7.37462687 66.9747954,7.55671642 67.2157119,7.70845771 C67.4566285,7.860199 68.1793781,8.16368159 69.3237316,8.64925373 C70.197054,9.01343284 70.8294599,9.37761194 71.2510638,9.71144279 C71.6726678,10.0452736 72.003928,10.4701493 72.1846154,10.9253731 C72.4255319,11.380597 72.5459902,11.9572139 72.5459902,12.6248756 L72.5459902,12.6248756 L72.5459902,12.6248756 Z" id="Shape"></path>
                                                    <path d="M79.6229133,13.2621891 C80.19509,13.2621891 80.887725,13.1104478 81.7008183,12.8373134 L81.7008183,15.9935323 C81.1286416,16.2363184 80.5865794,16.418408 80.0445172,16.539801 C79.5325696,16.661194 78.9001637,16.6915423 78.2075286,16.6915423 C76.7620295,16.6915423 75.7381342,16.3273632 75.1057283,15.6293532 C74.4733224,14.900995 74.1420622,13.8084577 74.1420622,12.3517413 L74.1420622,7.16218905 L72.6363339,7.16218905 L72.6363339,5.40199005 L74.5335516,4.03631841 L75.6477905,1.3960199 L78.4484452,1.3960199 L78.4484452,3.91492537 L81.4900164,3.91492537 L81.4900164,7.16218905 L78.4484452,7.16218905 L78.4484452,12.0482587 C78.4785597,12.8676617 78.8700491,13.2621891 79.6229133,13.2621891 L79.6229133,13.2621891 L79.6229133,13.2621891 Z" id="Shape"></path>
                                                </g>
                                                <g id="Group" transform="translate(0.000000, 0.303483)">
                                                    <path d="M7.31783961,7.07114428 L14.2743044,7.07114428 L14.2743044,15.8114428 C12.3770867,16.4487562 10.2991817,16.7825871 8.0405892,16.7825871 C5.57119476,16.7825871 3.64386252,16.0542289 2.28870704,14.5975124 C0.933551555,13.140796 0.271031097,11.0771144 0.271031097,8.40646766 C0.271031097,5.79651741 1.02389525,3.76318408 2.499509,2.30646766 C3.97512275,0.849751244 6.05302782,0.121393035 8.73322422,0.121393035 C9.75711948,0.121393035 10.690671,0.212437811 11.594108,0.424875622 C12.497545,0.606965174 13.2805237,0.849751244 13.9430442,1.15323383 L12.5577741,4.58258706 C11.4134206,4.00597015 10.1184943,3.73283582 8.73322422,3.73283582 C7.46841244,3.73283582 6.47463175,4.15771144 5.78199673,4.97711443 C5.0893617,5.79651741 4.72798691,7.01044776 4.72798691,8.55820896 C4.72798691,10.0756219 5.02913257,11.2288557 5.66153846,12.0179104 C6.29394435,12.8069652 7.19738134,13.2014925 8.37184943,13.2014925 C9.00425532,13.2014925 9.60654664,13.140796 10.1486088,13.019403 L10.1486088,10.4701493 L7.28772504,10.4701493 L7.31783961,7.07114428 L7.31783961,7.07114428 Z" id="Shape"></path>
                                                    <path d="M29.8435352,8.10298507 C29.8435352,10.8039801 29.090671,12.89801 27.6150573,14.3547264 C26.1394435,15.8114428 24.0615385,16.539801 21.3813421,16.539801 L16.1715221,16.539801 L16.1715221,0.303482587 L21.7427169,0.303482587 C24.3325696,0.303482587 26.3201309,0.971144279 27.7355155,2.30646766 C29.1509002,3.6721393 29.8435352,5.5840796 29.8435352,8.10298507 L29.8435352,8.10298507 L29.8435352,8.10298507 Z M25.3263502,8.25472637 C25.3263502,6.76766169 25.0252046,5.67512438 24.4530278,4.94676617 C23.8808511,4.21840796 22.9774141,3.85422886 21.802946,3.85422886 L20.5381342,3.85422886 L20.5381342,12.9283582 L21.5018003,12.9283582 C22.8268412,12.9283582 23.7905074,12.5338308 24.4229133,11.7751244 C25.0252046,11.0467662 25.3263502,9.86318408 25.3263502,8.25472637 L25.3263502,8.25472637 L25.3263502,8.25472637 Z" id="Shape"></path>
                                                    <path d="M37.8540098,7.07114428 L44.8104746,7.07114428 L44.8104746,15.8114428 C42.913257,16.4487562 40.8654664,16.7825871 38.5767594,16.7825871 C36.107365,16.7825871 34.1800327,16.0542289 32.8248773,14.5975124 C31.4697218,13.140796 30.8072013,11.0771144 30.8072013,8.40646766 C30.8072013,5.79651741 31.5600655,3.76318408 33.0356792,2.30646766 C34.511293,0.849751244 36.589198,0.121393035 39.2693944,0.121393035 C40.2932897,0.121393035 41.2268412,0.212437811 42.1302782,0.424875622 C43.0337152,0.606965174 43.8166939,0.849751244 44.4792144,1.15323383 L43.0939444,4.58258706 C41.9194763,4.00597015 40.6546645,3.73283582 39.2693944,3.73283582 C38.0045827,3.73283582 37.010802,4.15771144 36.3181669,4.97711443 C35.6255319,5.79651741 35.2641571,7.01044776 35.2641571,8.55820896 C35.2641571,10.0756219 35.5653028,11.2288557 36.1977087,12.0179104 C36.8301146,12.8069652 37.7335516,13.2014925 38.9080196,13.2014925 C39.5404255,13.2014925 40.1427169,13.140796 40.6847791,13.019403 L40.6847791,10.4701493 L37.8238953,10.4701493 L37.8540098,7.07114428 L37.8540098,7.07114428 Z" id="Shape"></path>
                                                </g>
                                            </g>
                                        </g>
                                        <path d="M15.4788871,33.0189055 L11.8651391,39.1189055 L18.3397709,43.7621891 L21.6523732,38.238806 L15.4788871,27.9507463 C16.3220949,29.3164179 16.3220949,31.6228856 15.4788871,33.0189055 L15.4788871,33.0189055 L15.4788871,33.0189055 Z" id="Shape" fill="#168B58"></path>
                                        <path d="M21.6523732,38.238806 L18.3397709,43.7621891 L25.1456628,48.6482587 C25.8382979,47.2218905 25.8081833,45.1885572 25.0252046,43.8835821 L21.6523732,38.238806 L21.6523732,38.238806 Z" id="Shape" fill="#D7AB56"></path>
                                    </g>
                                    <text id="C贸rdoba" fill="#E6E6E5" sketch:type="MSTextLayer" font-family="Roboto" font-size="17.9884343" font-weight="420">
                                        <tspan x="100.281506" y="49.4726368">C贸rdoba</tspan>
                                    </text>
                                </g>
                            </g>
                        </g>
                    </g>
                </g>
            </g>
            <g id="logo-b&amp;w" transform="translate(0.000000, 63.000000)">
                <g id="Page-1">
                    <g id="logo-light">
                        <g id="Page-1">
                            <g id="logo-light">
                                <g id="Page-1">
                                    <g id="logo-light">
                                        <g id="Page-1">
                                            <g id="logo-light" sketch:type="MSShapeGroup">
                                                <g id="Group">
                                                    <g id="Shape">
                                                        <path d="M8.16104746,60.8179104 L14.9669394,60.8179104 C16.593126,60.8179104 18.5806874,59.6646766 19.4238953,58.2686567 L25.1757774,48.6482587 C25.8684124,47.2218905 25.8382979,45.1885572 25.0553191,43.8835821 L21.6523732,38.238806 L8.16104746,60.8179104 L8.16104746,60.8179104 Z" fill="#4A4A4A"></path>
                                                        <path d="M15.4788871,33.0189055 L0.331260229,58.5721393 C-0.24091653,59.8164179 0.361374795,60.8482587 1.86710311,60.8482587 L8.16104746,60.8482587 L21.6523732,38.2691542 L15.4788871,27.9810945 C16.3220949,29.3164179 16.3220949,31.6228856 15.4788871,33.0189055" fill="#9B9B9B"></path>
                                                        <path d="M1.83698854,0.121393035 C0.210801964,0.121393035 -0.421603928,1.27462687 0.421603928,2.67064677 L25.0553191,43.8835821 C25.8382979,45.1885572 25.8382979,47.2522388 25.1757774,48.6482587 L31.1685761,38.6029851 L8.19116203,0.121393035 L1.83698854,0.121393035 L1.83698854,0.121393035 Z" fill="#9B9B9B"></path>
                                                        <path d="M8.16104746,0.121393035 L31.1384615,38.6029851 L34.4811784,33.0189055 C35.3243863,31.6228856 35.3243863,29.3467662 34.4811784,27.9507463 L19.4238953,2.67064677 C18.5806874,1.27462687 16.593126,0.121393035 14.9669394,0.121393035 L8.16104746,0.121393035 L8.16104746,0.121393035 Z" fill="#4A4A4A"></path>
                                                    </g>
                                                    <g id="Shape" transform="translate(47.882160, 10.318408)" fill="#4E4E4E">
                                                        <g id="Group" transform="translate(2.108020, 23.671642)">
                                                            <path d="M9.72700491,14.6278607 L0.0903436989,14.6278607 L0.0903436989,12.8676617 L3.76432079,9.13482587 C4.84844517,8.0119403 5.57119476,7.22288557 5.93256956,6.76766169 C6.29394435,6.31243781 6.53486088,5.85721393 6.71554828,5.46268657 C6.86612111,5.03781095 6.95646481,4.61293532 6.95646481,4.12736318 C6.95646481,3.49004975 6.77577741,2.97412935 6.38428805,2.60995025 C5.99279869,2.24577114 5.4507365,2.06368159 4.78821604,2.06368159 C4.24615385,2.06368159 3.70409165,2.15472637 3.19214403,2.36716418 C2.6801964,2.57960199 2.10801964,2.94378109 1.41538462,3.45970149 L0.180687398,1.94228856 C0.963666121,1.27462687 1.74664484,0.789054726 2.499509,0.515920398 C3.25237316,0.24278607 4.03535188,0.0910447761 4.87855974,0.0910447761 C6.20360065,0.0910447761 7.25761047,0.424875622 8.07070376,1.12288557 C8.88379705,1.82089552 9.27528642,2.76169154 9.27528642,3.94527363 C9.27528642,4.58258706 9.15482815,5.2199005 8.94402619,5.79651741 C8.70310966,6.37313433 8.37184943,6.9800995 7.89001637,7.58706468 C7.40818331,8.19402985 6.62520458,9.04378109 5.51096563,10.1059701 L3.04157119,12.5338308 L3.04157119,12.6248756 L9.78723404,12.6248756 L9.72700491,14.6278607 L9.72700491,14.6278607 Z" id="Shape"></path>
                                                            <path d="M21.110311,7.43532338 C21.110311,9.9238806 20.7188216,11.7751244 19.9057283,12.9890547 C19.092635,14.2029851 17.8880524,14.8099502 16.2618658,14.8099502 C14.6657938,14.8099502 13.4913257,14.1726368 12.6481178,12.9283582 C11.8350245,11.6840796 11.4134206,9.83283582 11.4134206,7.43532338 C11.4134206,4.91641791 11.80491,3.03482587 12.6180033,1.85124378 C13.400982,0.637313433 14.6356792,0.0606965174 16.2618658,0.0606965174 C17.8579378,0.0606965174 19.0625205,0.69800995 19.8756137,1.94228856 C20.688707,3.18656716 21.110311,5.00746269 21.110311,7.43532338 L21.110311,7.43532338 L21.110311,7.43532338 Z M13.7623568,7.43532338 C13.7623568,9.37761194 13.9731588,10.7736318 14.3646481,11.6233831 C14.7561375,12.4731343 15.3885434,12.8676617 16.2919804,12.8676617 C17.1653028,12.8676617 17.7977087,12.4427861 18.2193126,11.5930348 C18.610802,10.7432836 18.8216039,9.34726368 18.8216039,7.43532338 C18.8216039,5.52338308 18.610802,4.12736318 18.2193126,3.24726368 C17.8278232,2.39751244 17.1653028,1.94228856 16.2919804,1.94228856 C15.4186579,1.94228856 14.786252,2.36716418 14.3646481,3.21691542 C13.9430442,4.09701493 13.7623568,5.49303483 13.7623568,7.43532338 L13.7623568,7.43532338 L13.7623568,7.43532338 Z" id="Shape"></path>
                                                            <path d="M29.5423895,14.6278607 L27.2536825,14.6278607 L27.2536825,5.37164179 C27.2536825,4.27910448 27.2837971,3.39900498 27.3440262,2.73134328 C27.1934534,2.88308458 27.012766,3.06517413 26.801964,3.24726368 C26.591162,3.42935323 25.8684124,4.03631841 24.6036007,5.03781095 L23.4592471,3.58109453 L27.6451718,0.273134328 L29.5423895,0.273134328 L29.5423895,14.6278607 L29.5423895,14.6278607 Z" id="Shape"></path>
                                                            <path d="M39.0585925,5.64477612 C40.5040917,5.64477612 41.6183306,6.03930348 42.4615385,6.79800995 C43.3047463,7.55671642 43.7263502,8.61890547 43.7263502,9.9238806 C43.7263502,11.4412935 43.2445172,12.6552239 42.3109656,13.5049751 C41.3472995,14.3547264 40.0222586,14.8099502 38.2454992,14.8099502 C36.6494272,14.8099502 35.41473,14.5368159 34.4811784,14.0208955 L34.4811784,11.9268657 C34.993126,12.2303483 35.6255319,12.4731343 36.2880524,12.6248756 C36.9806874,12.7766169 37.6130933,12.8676617 38.18527,12.8676617 C39.2091653,12.8676617 39.992144,12.6248756 40.5342062,12.1696517 C41.0762684,11.7144279 41.3472995,11.0164179 41.3472995,10.1363184 C41.3472995,8.43681592 40.2631751,7.55671642 38.0949264,7.55671642 C37.7937807,7.55671642 37.4022913,7.58706468 36.9806874,7.64776119 C36.5289689,7.70845771 36.1374795,7.76915423 35.8062193,7.860199 L34.7823241,7.25323383 L35.3243863,0.24278607 L42.7325696,0.24278607 L42.7325696,2.30646766 L37.3420622,2.30646766 L37.010802,5.85721393 C37.2517185,5.82686567 37.5227496,5.76616915 37.8540098,5.70547264 C38.18527,5.67512438 38.5767594,5.64477612 39.0585925,5.64477612 L39.0585925,5.64477612 L39.0585925,5.64477612 Z" id="Shape"></path>
                                                        </g>
                                                        <g id="Group" transform="translate(54.206219, 0.000000)">
                                                            <path d="M13.6720131,8.0119403 C13.6720131,10.7129353 12.9492635,12.8069652 11.4736498,14.2636816 C9.99803601,15.720398 7.9502455,16.4487562 5.2700491,16.4487562 L0.0903436989,16.4487562 L0.0903436989,0.24278607 L5.6314239,0.24278607 C8.19116203,0.24278607 10.1787234,0.910447761 11.5639935,2.24577114 C12.9793781,3.58109453 13.6720131,5.52338308 13.6720131,8.0119403 L13.6720131,8.0119403 L13.6720131,8.0119403 Z M9.18494272,8.19402985 C9.18494272,6.70696517 8.88379705,5.61442786 8.31162029,4.88606965 C7.73944354,4.15771144 6.86612111,3.8238806 5.66153846,3.8238806 L4.39672668,3.8238806 L4.39672668,12.89801 L5.3603928,12.89801 C6.68543372,12.89801 7.64909984,12.5034826 8.25139116,11.7447761 C8.88379705,10.9557214 9.18494272,9.7721393 9.18494272,8.19402985 L9.18494272,8.19402985 L9.18494272,8.19402985 Z" id="Shape"></path>
                                                            <path d="M20.9296236,16.6915423 C18.8517185,16.6915423 17.2556465,16.1452736 16.111293,15.0223881 C14.9669394,13.8995025 14.3947627,12.321393 14.3947627,10.2577114 C14.3947627,8.13333333 14.9368249,6.49452736 15.9908347,5.37164179 C17.0448445,4.24875622 18.5505728,3.6721393 20.5080196,3.6721393 C22.3751227,3.6721393 23.8206219,4.15771144 24.8445172,5.15920398 C25.8684124,6.16069652 26.3803601,7.55671642 26.3803601,9.43830846 L26.3803601,11.380597 L18.7312602,11.380597 C18.7613748,12.078607 19.0022913,12.6248756 19.4841244,13.019403 C19.9659574,13.4139303 20.5983633,13.6263682 21.4415712,13.6263682 C22.1944354,13.6263682 22.8870704,13.5656716 23.5194763,13.4139303 C24.1518822,13.2621891 24.8445172,13.019403 25.5672668,12.6855721 L25.5672668,15.8114428 C24.9047463,16.1756219 24.2121113,16.3880597 23.4893617,16.539801 C22.7666121,16.6308458 21.9234043,16.6915423 20.9296236,16.6915423 L20.9296236,16.6915423 L20.9296236,16.6915423 Z M20.688707,6.64626866 C20.1767594,6.64626866 19.7551555,6.79800995 19.4238953,7.1318408 C19.092635,7.46567164 18.8818331,7.95124378 18.8216039,8.64925373 L22.495581,8.64925373 C22.4654664,8.04228856 22.3148936,7.55671642 21.9836334,7.19253731 C21.6523732,6.82835821 21.2307692,6.64626866 20.688707,6.64626866 L20.688707,6.64626866 L20.688707,6.64626866 Z" id="Shape"></path>
                                                            <path d="M30.686743,16.4791045 L25.9587561,3.91492537 L30.4157119,3.91492537 L32.5237316,11.3502488 C32.5237316,11.380597 32.5538462,11.4412935 32.5839607,11.5323383 C32.6140753,11.6233831 32.6140753,11.7144279 32.6441899,11.8358209 C32.6743044,11.9572139 32.6743044,12.078607 32.704419,12.2303483 C32.7345336,12.3820896 32.7345336,12.5034826 32.7345336,12.6248756 L32.7947627,12.6248756 C32.7947627,12.2303483 32.8549918,11.8358209 33.0055646,11.380597 L35.203928,3.91492537 L39.6608838,3.91492537 L34.9328969,16.4791045 L30.686743,16.4791045 L30.686743,16.4791045 Z" id="Shape"></path>
                                                            <path d="M44.2684124,16.4791045 L40.0222586,16.4791045 L40.0222586,0.273134328 L49.4782324,0.273134328 L49.4782324,3.79353234 L44.2684124,3.79353234 L44.2684124,6.88905473 L49.0566285,6.88905473 L49.0566285,10.4094527 L44.2684124,10.4094527 L44.2684124,16.4791045 L44.2684124,16.4791045 Z" id="Shape"></path>
                                                            <path d="M56.4648118,16.6915423 C54.4170213,16.6915423 52.8209493,16.1452736 51.6464812,15.0223881 C50.5021277,13.8995025 49.9299509,12.321393 49.9299509,10.2577114 C49.9299509,8.13333333 50.4720131,6.49452736 51.5260229,5.37164179 C52.5800327,4.24875622 54.085761,3.6721393 56.0432079,3.6721393 C57.910311,3.6721393 59.3558101,4.15771144 60.3797054,5.15920398 C61.4036007,6.16069652 61.9155483,7.55671642 61.9155483,9.43830846 L61.9155483,11.380597 L54.2664484,11.380597 C54.296563,12.078607 54.5374795,12.6248756 55.0193126,13.019403 C55.5011457,13.4139303 56.1335516,13.6263682 56.9767594,13.6263682 C57.7296236,13.6263682 58.4222586,13.5656716 59.0546645,13.4139303 C59.6870704,13.2621891 60.3495908,13.019403 61.102455,12.6855721 L61.102455,15.8114428 C60.4399345,16.1756219 59.7472995,16.3880597 59.0245499,16.539801 C58.3018003,16.6308458 57.4585925,16.6915423 56.4648118,16.6915423 L56.4648118,16.6915423 L56.4648118,16.6915423 Z M56.2238953,6.64626866 C55.7119476,6.64626866 55.2903437,6.79800995 54.9590835,7.1318408 C54.6278232,7.46567164 54.4170213,7.95124378 54.3567921,8.64925373 L58.0307692,8.64925373 C58.0006547,8.04228856 57.8500818,7.55671642 57.5188216,7.19253731 C57.1875614,6.82835821 56.7659574,6.64626866 56.2238953,6.64626866 L56.2238953,6.64626866 L56.2238953,6.64626866 Z" id="Shape"></path>
                                                            <path d="M72.5459902,12.6248756 C72.5459902,13.960199 72.0942717,14.9920398 71.1908347,15.6900498 C70.2873977,16.3880597 68.9924714,16.7218905 67.3060556,16.7218905 C66.4026187,16.7218905 65.5895254,16.661194 64.9270049,16.5701493 C64.2343699,16.4791045 63.5718494,16.2970149 62.8490998,16.0238806 L62.8490998,12.5641791 C63.5116203,12.8676617 64.2343699,13.1104478 65.0173486,13.2925373 C65.8003273,13.4746269 66.5230769,13.5656716 67.1253682,13.5656716 C68.0589198,13.5656716 68.5106383,13.3532338 68.5106383,12.9283582 C68.5106383,12.7159204 68.39018,12.5034826 68.1191489,12.321393 C67.8481178,12.1393035 67.0952537,11.8054726 65.8605565,11.3199005 C64.7162029,10.8343284 63.9332242,10.318408 63.4815057,9.71144279 C63.0297872,9.10447761 62.7888707,8.34577114 62.7888707,7.43532338 C62.7888707,6.28208955 63.2405892,5.37164179 64.1139116,4.7039801 C64.987234,4.03631841 66.2520458,3.73283582 67.8782324,3.73283582 C68.6913257,3.73283582 69.4743044,3.8238806 70.1669394,4.00597015 C70.889689,4.1880597 71.6124386,4.46119403 72.3954173,4.79502488 L71.2510638,7.58706468 C70.6788871,7.34427861 70.0765957,7.10149254 69.4441899,6.91940299 C68.811784,6.73731343 68.2998363,6.64626866 67.908347,6.64626866 C67.2157119,6.64626866 66.8543372,6.82835821 66.8543372,7.16218905 C66.8543372,7.37462687 66.9747954,7.55671642 67.2157119,7.70845771 C67.4566285,7.860199 68.1793781,8.16368159 69.3237316,8.64925373 C70.197054,9.01343284 70.8294599,9.37761194 71.2510638,9.71144279 C71.6726678,10.0452736 72.003928,10.4701493 72.1846154,10.9253731 C72.4255319,11.380597 72.5459902,11.9572139 72.5459902,12.6248756 L72.5459902,12.6248756 L72.5459902,12.6248756 Z" id="Shape"></path>
                                                            <path d="M79.6229133,13.2621891 C80.19509,13.2621891 80.887725,13.1104478 81.7008183,12.8373134 L81.7008183,15.9935323 C81.1286416,16.2363184 80.5865794,16.418408 80.0445172,16.539801 C79.5325696,16.661194 78.9001637,16.6915423 78.2075286,16.6915423 C76.7620295,16.6915423 75.7381342,16.3273632 75.1057283,15.6293532 C74.4733224,14.900995 74.1420622,13.8084577 74.1420622,12.3517413 L74.1420622,7.16218905 L72.6363339,7.16218905 L72.6363339,5.40199005 L74.5335516,4.03631841 L75.6477905,1.3960199 L78.4484452,1.3960199 L78.4484452,3.91492537 L81.4900164,3.91492537 L81.4900164,7.16218905 L78.4484452,7.16218905 L78.4484452,12.0482587 C78.4785597,12.8676617 78.8700491,13.2621891 79.6229133,13.2621891 L79.6229133,13.2621891 L79.6229133,13.2621891 Z" id="Shape"></path>
                                                        </g>
                                                        <g id="Group" transform="translate(0.000000, 0.303483)">
                                                            <path d="M7.31783961,7.07114428 L14.2743044,7.07114428 L14.2743044,15.8114428 C12.3770867,16.4487562 10.2991817,16.7825871 8.0405892,16.7825871 C5.57119476,16.7825871 3.64386252,16.0542289 2.28870704,14.5975124 C0.933551555,13.140796 0.271031097,11.0771144 0.271031097,8.40646766 C0.271031097,5.79651741 1.02389525,3.76318408 2.499509,2.30646766 C3.97512275,0.849751244 6.05302782,0.121393035 8.73322422,0.121393035 C9.75711948,0.121393035 10.690671,0.212437811 11.594108,0.424875622 C12.497545,0.606965174 13.2805237,0.849751244 13.9430442,1.15323383 L12.5577741,4.58258706 C11.4134206,4.00597015 10.1184943,3.73283582 8.73322422,3.73283582 C7.46841244,3.73283582 6.47463175,4.15771144 5.78199673,4.97711443 C5.0893617,5.79651741 4.72798691,7.01044776 4.72798691,8.55820896 C4.72798691,10.0756219 5.02913257,11.2288557 5.66153846,12.0179104 C6.29394435,12.8069652 7.19738134,13.2014925 8.37184943,13.2014925 C9.00425532,13.2014925 9.60654664,13.140796 10.1486088,13.019403 L10.1486088,10.4701493 L7.28772504,10.4701493 L7.31783961,7.07114428 L7.31783961,7.07114428 Z" id="Shape"></path>
                                                            <path d="M29.8435352,8.10298507 C29.8435352,10.8039801 29.090671,12.89801 27.6150573,14.3547264 C26.1394435,15.8114428 24.0615385,16.539801 21.3813421,16.539801 L16.1715221,16.539801 L16.1715221,0.303482587 L21.7427169,0.303482587 C24.3325696,0.303482587 26.3201309,0.971144279 27.7355155,2.30646766 C29.1509002,3.6721393 29.8435352,5.5840796 29.8435352,8.10298507 L29.8435352,8.10298507 L29.8435352,8.10298507 Z M25.3263502,8.25472637 C25.3263502,6.76766169 25.0252046,5.67512438 24.4530278,4.94676617 C23.8808511,4.21840796 22.9774141,3.85422886 21.802946,3.85422886 L20.5381342,3.85422886 L20.5381342,12.9283582 L21.5018003,12.9283582 C22.8268412,12.9283582 23.7905074,12.5338308 24.4229133,11.7751244 C25.0252046,11.0467662 25.3263502,9.86318408 25.3263502,8.25472637 L25.3263502,8.25472637 L25.3263502,8.25472637 Z" id="Shape"></path>
                                                            <path d="M37.8540098,7.07114428 L44.8104746,7.07114428 L44.8104746,15.8114428 C42.913257,16.4487562 40.8654664,16.7825871 38.5767594,16.7825871 C36.107365,16.7825871 34.1800327,16.0542289 32.8248773,14.5975124 C31.4697218,13.140796 30.8072013,11.0771144 30.8072013,8.40646766 C30.8072013,5.79651741 31.5600655,3.76318408 33.0356792,2.30646766 C34.511293,0.849751244 36.589198,0.121393035 39.2693944,0.121393035 C40.2932897,0.121393035 41.2268412,0.212437811 42.1302782,0.424875622 C43.0337152,0.606965174 43.8166939,0.849751244 44.4792144,1.15323383 L43.0939444,4.58258706 C41.9194763,4.00597015 40.6546645,3.73283582 39.2693944,3.73283582 C38.0045827,3.73283582 37.010802,4.15771144 36.3181669,4.97711443 C35.6255319,5.79651741 35.2641571,7.01044776 35.2641571,8.55820896 C35.2641571,10.0756219 35.5653028,11.2288557 36.1977087,12.0179104 C36.8301146,12.8069652 37.7335516,13.2014925 38.9080196,13.2014925 C39.5404255,13.2014925 40.1427169,13.140796 40.6847791,13.019403 L40.6847791,10.4701493 L37.8238953,10.4701493 L37.8540098,7.07114428 L37.8540098,7.07114428 Z" id="Shape"></path>
                                                        </g>
                                                    </g>
                                                </g>
                                                <path d="M15.4788871,33.0189055 L11.8651391,39.1189055 L18.3397709,43.7621891 L21.6523732,38.238806 L15.4788871,27.9507463 C16.3220949,29.3164179 16.3220949,31.6228856 15.4788871,33.0189055 L15.4788871,33.0189055 L15.4788871,33.0189055 Z" id="Shape" fill="#848484"></path>
                                                <path d="M21.6523732,38.238806 L18.3397709,43.7621891 L25.1456628,48.6482587 C25.8382979,47.2218905 25.8081833,45.1885572 25.0252046,43.8835821 L21.6523732,38.238806 L21.6523732,38.238806 Z" id="Shape" fill="#3C3C3C"></path>
                                            </g>
                                            <text id="C贸rdoba" fill="#4E4E4E" sketch:type="MSTextLayer" font-family="Roboto" font-size="15.3501306" font-weight="420">
                                                <tspan x="100.281506" y="48.9004975" fill="#000000">C贸rdoba</tspan>
                                            </text>
                                        </g>
                                    </g>
                                </g>
                            </g>
                        </g>
                    </g>
                </g>
            </g>
            <g id="logo">
                <g id="Page-1">
                    <g id="logo-light">
                        <g id="Page-1">
                            <g id="logo-light">
                                <g id="Page-1">
                                    <g id="logo-light">
                                        <g id="Page-1">
                                            <g id="logo-light" sketch:type="MSShapeGroup">
                                                <g id="Group">
                                                    <g id="Shape">
                                                        <path d="M8.16104746,60.8179104 L14.9669394,60.8179104 C16.593126,60.8179104 18.5806874,59.6646766 19.4238953,58.2686567 L25.1757774,48.6482587 C25.8684124,47.2218905 25.8382979,45.1885572 25.0553191,43.8835821 L21.6523732,38.238806 L8.16104746,60.8179104 L8.16104746,60.8179104 Z" fill="#F6C25B"></path>
                                                        <path d="M15.4788871,33.0189055 L0.331260229,58.5721393 C-0.24091653,59.8164179 0.361374795,60.8482587 1.86710311,60.8482587 L8.16104746,60.8482587 L21.6523732,38.2691542 L15.4788871,27.9810945 C16.3220949,29.3164179 16.3220949,31.6228856 15.4788871,33.0189055" fill="#0A985C"></path>
                                                        <path d="M1.83698854,0.121393035 C0.210801964,0.121393035 -0.421603928,1.27462687 0.421603928,2.67064677 L25.0553191,43.8835821 C25.8382979,45.1885572 25.8382979,47.2522388 25.1757774,48.6482587 L31.1685761,38.6029851 L8.19116203,0.121393035 L1.83698854,0.121393035 L1.83698854,0.121393035 Z" fill="#5586C5"></path>
                                                        <path d="M8.16104746,0.121393035 L31.1384615,38.6029851 L34.4811784,33.0189055 C35.3243863,31.6228856 35.3243863,29.3467662 34.4811784,27.9507463 L19.4238953,2.67064677 C18.5806874,1.27462687 16.593126,0.121393035 14.9669394,0.121393035 L8.16104746,0.121393035 L8.16104746,0.121393035 Z" fill="#D9423E"></path>
                                                    </g>
                                                    <g id="Shape" transform="translate(47.882160, 10.318408)" fill="#4E4E4E">
                                                        <g id="Group" transform="translate(2.108020, 23.671642)">
                                                            <path d="M9.72700491,14.6278607 L0.0903436989,14.6278607 L0.0903436989,12.8676617 L3.76432079,9.13482587 C4.84844517,8.0119403 5.57119476,7.22288557 5.93256956,6.76766169 C6.29394435,6.31243781 6.53486088,5.85721393 6.71554828,5.46268657 C6.86612111,5.03781095 6.95646481,4.61293532 6.95646481,4.12736318 C6.95646481,3.49004975 6.77577741,2.97412935 6.38428805,2.60995025 C5.99279869,2.24577114 5.4507365,2.06368159 4.78821604,2.06368159 C4.24615385,2.06368159 3.70409165,2.15472637 3.19214403,2.36716418 C2.6801964,2.57960199 2.10801964,2.94378109 1.41538462,3.45970149 L0.180687398,1.94228856 C0.963666121,1.27462687 1.74664484,0.789054726 2.499509,0.515920398 C3.25237316,0.24278607 4.03535188,0.0910447761 4.87855974,0.0910447761 C6.20360065,0.0910447761 7.25761047,0.424875622 8.07070376,1.12288557 C8.88379705,1.82089552 9.27528642,2.76169154 9.27528642,3.94527363 C9.27528642,4.58258706 9.15482815,5.2199005 8.94402619,5.79651741 C8.70310966,6.37313433 8.37184943,6.9800995 7.89001637,7.58706468 C7.40818331,8.19402985 6.62520458,9.04378109 5.51096563,10.1059701 L3.04157119,12.5338308 L3.04157119,12.6248756 L9.78723404,12.6248756 L9.72700491,14.6278607 L9.72700491,14.6278607 Z" id="Shape"></path>
                                                            <path d="M21.110311,7.43532338 C21.110311,9.9238806 20.7188216,11.7751244 19.9057283,12.9890547 C19.092635,14.2029851 17.8880524,14.8099502 16.2618658,14.8099502 C14.6657938,14.8099502 13.4913257,14.1726368 12.6481178,12.9283582 C11.8350245,11.6840796 11.4134206,9.83283582 11.4134206,7.43532338 C11.4134206,4.91641791 11.80491,3.03482587 12.6180033,1.85124378 C13.400982,0.637313433 14.6356792,0.0606965174 16.2618658,0.0606965174 C17.8579378,0.0606965174 19.0625205,0.69800995 19.8756137,1.94228856 C20.688707,3.18656716 21.110311,5.00746269 21.110311,7.43532338 L21.110311,7.43532338 L21.110311,7.43532338 Z M13.7623568,7.43532338 C13.7623568,9.37761194 13.9731588,10.7736318 14.3646481,11.6233831 C14.7561375,12.4731343 15.3885434,12.8676617 16.2919804,12.8676617 C17.1653028,12.8676617 17.7977087,12.4427861 18.2193126,11.5930348 C18.610802,10.7432836 18.8216039,9.34726368 18.8216039,7.43532338 C18.8216039,5.52338308 18.610802,4.12736318 18.2193126,3.24726368 C17.8278232,2.39751244 17.1653028,1.94228856 16.2919804,1.94228856 C15.4186579,1.94228856 14.786252,2.36716418 14.3646481,3.21691542 C13.9430442,4.09701493 13.7623568,5.49303483 13.7623568,7.43532338 L13.7623568,7.43532338 L13.7623568,7.43532338 Z" id="Shape"></path>
                                                            <path d="M29.5423895,14.6278607 L27.2536825,14.6278607 L27.2536825,5.37164179 C27.2536825,4.27910448 27.2837971,3.39900498 27.3440262,2.73134328 C27.1934534,2.88308458 27.012766,3.06517413 26.801964,3.24726368 C26.591162,3.42935323 25.8684124,4.03631841 24.6036007,5.03781095 L23.4592471,3.58109453 L27.6451718,0.273134328 L29.5423895,0.273134328 L29.5423895,14.6278607 L29.5423895,14.6278607 Z" id="Shape"></path>
                                                            <path d="M39.0585925,5.64477612 C40.5040917,5.64477612 41.6183306,6.03930348 42.4615385,6.79800995 C43.3047463,7.55671642 43.7263502,8.61890547 43.7263502,9.9238806 C43.7263502,11.4412935 43.2445172,12.6552239 42.3109656,13.5049751 C41.3472995,14.3547264 40.0222586,14.8099502 38.2454992,14.8099502 C36.6494272,14.8099502 35.41473,14.5368159 34.4811784,14.0208955 L34.4811784,11.9268657 C34.993126,12.2303483 35.6255319,12.4731343 36.2880524,12.6248756 C36.9806874,12.7766169 37.6130933,12.8676617 38.18527,12.8676617 C39.2091653,12.8676617 39.992144,12.6248756 40.5342062,12.1696517 C41.0762684,11.7144279 41.3472995,11.0164179 41.3472995,10.1363184 C41.3472995,8.43681592 40.2631751,7.55671642 38.0949264,7.55671642 C37.7937807,7.55671642 37.4022913,7.58706468 36.9806874,7.64776119 C36.5289689,7.70845771 36.1374795,7.76915423 35.8062193,7.860199 L34.7823241,7.25323383 L35.3243863,0.24278607 L42.7325696,0.24278607 L42.7325696,2.30646766 L37.3420622,2.30646766 L37.010802,5.85721393 C37.2517185,5.82686567 37.5227496,5.76616915 37.8540098,5.70547264 C38.18527,5.67512438 38.5767594,5.64477612 39.0585925,5.64477612 L39.0585925,5.64477612 L39.0585925,5.64477612 Z" id="Shape"></path>
                                                        </g>
                                                        <g id="Group" transform="translate(54.206219, 0.000000)">
                                                            <path d="M13.6720131,8.0119403 C13.6720131,10.7129353 12.9492635,12.8069652 11.4736498,14.2636816 C9.99803601,15.720398 7.9502455,16.4487562 5.2700491,16.4487562 L0.0903436989,16.4487562 L0.0903436989,0.24278607 L5.6314239,0.24278607 C8.19116203,0.24278607 10.1787234,0.910447761 11.5639935,2.24577114 C12.9793781,3.58109453 13.6720131,5.52338308 13.6720131,8.0119403 L13.6720131,8.0119403 L13.6720131,8.0119403 Z M9.18494272,8.19402985 C9.18494272,6.70696517 8.88379705,5.61442786 8.31162029,4.88606965 C7.73944354,4.15771144 6.86612111,3.8238806 5.66153846,3.8238806 L4.39672668,3.8238806 L4.39672668,12.89801 L5.3603928,12.89801 C6.68543372,12.89801 7.64909984,12.5034826 8.25139116,11.7447761 C8.88379705,10.9557214 9.18494272,9.7721393 9.18494272,8.19402985 L9.18494272,8.19402985 L9.18494272,8.19402985 Z" id="Shape"></path>
                                                            <path d="M20.9296236,16.6915423 C18.8517185,16.6915423 17.2556465,16.1452736 16.111293,15.0223881 C14.9669394,13.8995025 14.3947627,12.321393 14.3947627,10.2577114 C14.3947627,8.13333333 14.9368249,6.49452736 15.9908347,5.37164179 C17.0448445,4.24875622 18.5505728,3.6721393 20.5080196,3.6721393 C22.3751227,3.6721393 23.8206219,4.15771144 24.8445172,5.15920398 C25.8684124,6.16069652 26.3803601,7.55671642 26.3803601,9.43830846 L26.3803601,11.380597 L18.7312602,11.380597 C18.7613748,12.078607 19.0022913,12.6248756 19.4841244,13.019403 C19.9659574,13.4139303 20.5983633,13.6263682 21.4415712,13.6263682 C22.1944354,13.6263682 22.8870704,13.5656716 23.5194763,13.4139303 C24.1518822,13.2621891 24.8445172,13.019403 25.5672668,12.6855721 L25.5672668,15.8114428 C24.9047463,16.1756219 24.2121113,16.3880597 23.4893617,16.539801 C22.7666121,16.6308458 21.9234043,16.6915423 20.9296236,16.6915423 L20.9296236,16.6915423 L20.9296236,16.6915423 Z M20.688707,6.64626866 C20.1767594,6.64626866 19.7551555,6.79800995 19.4238953,7.1318408 C19.092635,7.46567164 18.8818331,7.95124378 18.8216039,8.64925373 L22.495581,8.64925373 C22.4654664,8.04228856 22.3148936,7.55671642 21.9836334,7.19253731 C21.6523732,6.82835821 21.2307692,6.64626866 20.688707,6.64626866 L20.688707,6.64626866 L20.688707,6.64626866 Z" id="Shape"></path>
                                                            <path d="M30.686743,16.4791045 L25.9587561,3.91492537 L30.4157119,3.91492537 L32.5237316,11.3502488 C32.5237316,11.380597 32.5538462,11.4412935 32.5839607,11.5323383 C32.6140753,11.6233831 32.6140753,11.7144279 32.6441899,11.8358209 C32.6743044,11.9572139 32.6743044,12.078607 32.704419,12.2303483 C32.7345336,12.3820896 32.7345336,12.5034826 32.7345336,12.6248756 L32.7947627,12.6248756 C32.7947627,12.2303483 32.8549918,11.8358209 33.0055646,11.380597 L35.203928,3.91492537 L39.6608838,3.91492537 L34.9328969,16.4791045 L30.686743,16.4791045 L30.686743,16.4791045 Z" id="Shape"></path>
                                                            <path d="M44.2684124,16.4791045 L40.0222586,16.4791045 L40.0222586,0.273134328 L49.4782324,0.273134328 L49.4782324,3.79353234 L44.2684124,3.79353234 L44.2684124,6.88905473 L49.0566285,6.88905473 L49.0566285,10.4094527 L44.2684124,10.4094527 L44.2684124,16.4791045 L44.2684124,16.4791045 Z" id="Shape"></path>
                                                            <path d="M56.4648118,16.6915423 C54.4170213,16.6915423 52.8209493,16.1452736 51.6464812,15.0223881 C50.5021277,13.8995025 49.9299509,12.321393 49.9299509,10.2577114 C49.9299509,8.13333333 50.4720131,6.49452736 51.5260229,5.37164179 C52.5800327,4.24875622 54.085761,3.6721393 56.0432079,3.6721393 C57.910311,3.6721393 59.3558101,4.15771144 60.3797054,5.15920398 C61.4036007,6.16069652 61.9155483,7.55671642 61.9155483,9.43830846 L61.9155483,11.380597 L54.2664484,11.380597 C54.296563,12.078607 54.5374795,12.6248756 55.0193126,13.019403 C55.5011457,13.4139303 56.1335516,13.6263682 56.9767594,13.6263682 C57.7296236,13.6263682 58.4222586,13.5656716 59.0546645,13.4139303 C59.6870704,13.2621891 60.3495908,13.019403 61.102455,12.6855721 L61.102455,15.8114428 C60.4399345,16.1756219 59.7472995,16.3880597 59.0245499,16.539801 C58.3018003,16.6308458 57.4585925,16.6915423 56.4648118,16.6915423 L56.4648118,16.6915423 L56.4648118,16.6915423 Z M56.2238953,6.64626866 C55.7119476,6.64626866 55.2903437,6.79800995 54.9590835,7.1318408 C54.6278232,7.46567164 54.4170213,7.95124378 54.3567921,8.64925373 L58.0307692,8.64925373 C58.0006547,8.04228856 57.8500818,7.55671642 57.5188216,7.19253731 C57.1875614,6.82835821 56.7659574,6.64626866 56.2238953,6.64626866 L56.2238953,6.64626866 L56.2238953,6.64626866 Z" id="Shape"></path>
                                                            <path d="M72.5459902,12.6248756 C72.5459902,13.960199 72.0942717,14.9920398 71.1908347,15.6900498 C70.2873977,16.3880597 68.9924714,16.7218905 67.3060556,16.7218905 C66.4026187,16.7218905 65.5895254,16.661194 64.9270049,16.5701493 C64.2343699,16.4791045 63.5718494,16.2970149 62.8490998,16.0238806 L62.8490998,12.5641791 C63.5116203,12.8676617 64.2343699,13.1104478 65.0173486,13.2925373 C65.8003273,13.4746269 66.5230769,13.5656716 67.1253682,13.5656716 C68.0589198,13.5656716 68.5106383,13.3532338 68.5106383,12.9283582 C68.5106383,12.7159204 68.39018,12.5034826 68.1191489,12.321393 C67.8481178,12.1393035 67.0952537,11.8054726 65.8605565,11.3199005 C64.7162029,10.8343284 63.9332242,10.318408 63.4815057,9.71144279 C63.0297872,9.10447761 62.7888707,8.34577114 62.7888707,7.43532338 C62.7888707,6.28208955 63.2405892,5.37164179 64.1139116,4.7039801 C64.987234,4.03631841 66.2520458,3.73283582 67.8782324,3.73283582 C68.6913257,3.73283582 69.4743044,3.8238806 70.1669394,4.00597015 C70.889689,4.1880597 71.6124386,4.46119403 72.3954173,4.79502488 L71.2510638,7.58706468 C70.6788871,7.34427861 70.0765957,7.10149254 69.4441899,6.91940299 C68.811784,6.73731343 68.2998363,6.64626866 67.908347,6.64626866 C67.2157119,6.64626866 66.8543372,6.82835821 66.8543372,7.16218905 C66.8543372,7.37462687 66.9747954,7.55671642 67.2157119,7.70845771 C67.4566285,7.860199 68.1793781,8.16368159 69.3237316,8.64925373 C70.197054,9.01343284 70.8294599,9.37761194 71.2510638,9.71144279 C71.6726678,10.0452736 72.003928,10.4701493 72.1846154,10.9253731 C72.4255319,11.380597 72.5459902,11.9572139 72.5459902,12.6248756 L72.5459902,12.6248756 L72.5459902,12.6248756 Z" id="Shape"></path>
                                                            <path d="M79.6229133,13.2621891 C80.19509,13.2621891 80.887725,13.1104478 81.7008183,12.8373134 L81.7008183,15.9935323 C81.1286416,16.2363184 80.5865794,16.418408 80.0445172,16.539801 C79.5325696,16.661194 78.9001637,16.6915423 78.2075286,16.6915423 C76.7620295,16.6915423 75.7381342,16.3273632 75.1057283,15.6293532 C74.4733224,14.900995 74.1420622,13.8084577 74.1420622,12.3517413 L74.1420622,7.16218905 L72.6363339,7.16218905 L72.6363339,5.40199005 L74.5335516,4.03631841 L75.6477905,1.3960199 L78.4484452,1.3960199 L78.4484452,3.91492537 L81.4900164,3.91492537 L81.4900164,7.16218905 L78.4484452,7.16218905 L78.4484452,12.0482587 C78.4785597,12.8676617 78.8700491,13.2621891 79.6229133,13.2621891 L79.6229133,13.2621891 L79.6229133,13.2621891 Z" id="Shape"></path>
                                                        </g>
                                                        <g id="Group" transform="translate(0.000000, 0.303483)">
                                                            <path d="M7.31783961,7.07114428 L14.2743044,7.07114428 L14.2743044,15.8114428 C12.3770867,16.4487562 10.2991817,16.7825871 8.0405892,16.7825871 C5.57119476,16.7825871 3.64386252,16.0542289 2.28870704,14.5975124 C0.933551555,13.140796 0.271031097,11.0771144 0.271031097,8.40646766 C0.271031097,5.79651741 1.02389525,3.76318408 2.499509,2.30646766 C3.97512275,0.849751244 6.05302782,0.121393035 8.73322422,0.121393035 C9.75711948,0.121393035 10.690671,0.212437811 11.594108,0.424875622 C12.497545,0.606965174 13.2805237,0.849751244 13.9430442,1.15323383 L12.5577741,4.58258706 C11.4134206,4.00597015 10.1184943,3.73283582 8.73322422,3.73283582 C7.46841244,3.73283582 6.47463175,4.15771144 5.78199673,4.97711443 C5.0893617,5.79651741 4.72798691,7.01044776 4.72798691,8.55820896 C4.72798691,10.0756219 5.02913257,11.2288557 5.66153846,12.0179104 C6.29394435,12.8069652 7.19738134,13.2014925 8.37184943,13.2014925 C9.00425532,13.2014925 9.60654664,13.140796 10.1486088,13.019403 L10.1486088,10.4701493 L7.28772504,10.4701493 L7.31783961,7.07114428 L7.31783961,7.07114428 Z" id="Shape"></path>
                                                            <path d="M29.8435352,8.10298507 C29.8435352,10.8039801 29.090671,12.89801 27.6150573,14.3547264 C26.1394435,15.8114428 24.0615385,16.539801 21.3813421,16.539801 L16.1715221,16.539801 L16.1715221,0.303482587 L21.7427169,0.303482587 C24.3325696,0.303482587 26.3201309,0.971144279 27.7355155,2.30646766 C29.1509002,3.6721393 29.8435352,5.5840796 29.8435352,8.10298507 L29.8435352,8.10298507 L29.8435352,8.10298507 Z M25.3263502,8.25472637 C25.3263502,6.76766169 25.0252046,5.67512438 24.4530278,4.94676617 C23.8808511,4.21840796 22.9774141,3.85422886 21.802946,3.85422886 L20.5381342,3.85422886 L20.5381342,12.9283582 L21.5018003,12.9283582 C22.8268412,12.9283582 23.7905074,12.5338308 24.4229133,11.7751244 C25.0252046,11.0467662 25.3263502,9.86318408 25.3263502,8.25472637 L25.3263502,8.25472637 L25.3263502,8.25472637 Z" id="Shape"></path>
                                                            <path d="M37.8540098,7.07114428 L44.8104746,7.07114428 L44.8104746,15.8114428 C42.913257,16.4487562 40.8654664,16.7825871 38.5767594,16.7825871 C36.107365,16.7825871 34.1800327,16.0542289 32.8248773,14.5975124 C31.4697218,13.140796 30.8072013,11.0771144 30.8072013,8.40646766 C30.8072013,5.79651741 31.5600655,3.76318408 33.0356792,2.30646766 C34.511293,0.849751244 36.589198,0.121393035 39.2693944,0.121393035 C40.2932897,0.121393035 41.2268412,0.212437811 42.1302782,0.424875622 C43.0337152,0.606965174 43.8166939,0.849751244 44.4792144,1.15323383 L43.0939444,4.58258706 C41.9194763,4.00597015 40.6546645,3.73283582 39.2693944,3.73283582 C38.0045827,3.73283582 37.010802,4.15771144 36.3181669,4.97711443 C35.6255319,5.79651741 35.2641571,7.01044776 35.2641571,8.55820896 C35.2641571,10.0756219 35.5653028,11.2288557 36.1977087,12.0179104 C36.8301146,12.8069652 37.7335516,13.2014925 38.9080196,13.2014925 C39.5404255,13.2014925 40.1427169,13.140796 40.6847791,13.019403 L40.6847791,10.4701493 L37.8238953,10.4701493 L37.8540098,7.07114428 L37.8540098,7.07114428 Z" id="Shape"></path>
                                                        </g>
                                                    </g>
                                                </g>
                                                <path d="M15.4788871,33.0189055 L11.8651391,39.1189055 L18.3397709,43.7621891 L21.6523732,38.238806 L15.4788871,27.9507463 C16.3220949,29.3164179 16.3220949,31.6228856 15.4788871,33.0189055 L15.4788871,33.0189055 L15.4788871,33.0189055 Z" id="Shape" fill="#168B58"></path>
                                                <path d="M21.6523732,38.238806 L18.3397709,43.7621891 L25.1456628,48.6482587 C25.8382979,47.2218905 25.8081833,45.1885572 25.0252046,43.8835821 L21.6523732,38.238806 L21.6523732,38.238806 Z" id="Shape" fill="#D7AB56"></path>
                                            </g>
                                            <text id="C贸rdoba" fill="#4E4E4E" sketch:type="MSTextLayer" font-family="Roboto" font-size="15.3501306" font-weight="420">
                                                <tspan x="100.281506" y="48.9004975" fill="#000000">C贸rdoba</tspan>
                                            </text>
                                        </g>
                                    </g>
                                </g>
                            </g>
                        </g>
                    </g>
                </g>
            </g>
        </g>
    </g>
</svg>